<svg width="560" height="160" viewBox="0 0 560 160" fill="none" xmlns="http://www.w3.org/2000/svg" role="img" aria-labelledby="title desc">
  <title id="title">Value Added Assets logo</title>
  <desc id="desc">Custom geometric mark and wordmark for Value Added Assets.</desc>
  <defs>
    <linearGradient id="gold" x1="36" y1="19" x2="137" y2="139" gradientUnits="userSpaceOnUse">
      <stop stop-color="#F0D18A"/>
      <stop offset="0.42" stop-color="#BF8F3B"/>
      <stop offset="1" stop-color="#7B5C28"/>
    </linearGradient>
    <linearGradient id="teal" x1="34" y1="125" x2="123" y2="38" gradientUnits="userSpaceOnUse">
      <stop stop-color="#0B2633"/>
      <stop offset="1" stop-color="#1F7783"/>
    </linearGradient>
  </defs>
  <g>
    <path d="M80 10L148 48V112L80 150L12 112V48L80 10Z" fill="#061B2A"/>
    <path d="M80 18L140 52V108L80 142L20 108V52L80 18Z" stroke="url(#gold)" stroke-width="7"/>
    <path d="M47 103L76 50L104 103H92L76 73L60 103H47Z" fill="url(#gold)"/>
    <path d="M65 110H95L105 129H55L65 110Z" fill="url(#teal)"/>
    <path d="M106 52H119L91 107L84 93L106 52Z" fill="#E6C174"/>
    <circle cx="80" cy="80" r="54" stroke="rgba(255,255,255,.12)" stroke-width="1"/>
  </g>
  <g fill="#0B2633">
    <text x="178" y="65" font-family="Georgia, 'Times New Roman', serif" font-size="38" font-weight="700" letter-spacing=".5">Value Added</text>
    <text x="178" y="108" font-family="Georgia, 'Times New Roman', serif" font-size="38" font-weight="700" letter-spacing=".5">Assets</text>
    <text x="181" y="132" font-family="Arial, Helvetica, sans-serif" font-size="11" font-weight="700" letter-spacing="4" fill="#8A6A32">APPRAISAL · COST SEGREGATION · ADVISORY</text>
  </g>
</svg>
